<?xml version="1.0" standalone="no"?>
<!DOCTYPE svg PUBLIC "-//W3C//DTD SVG 20010904//EN"
 "http://www.w3.org/TR/2001/REC-SVG-20010904/DTD/svg10.dtd">
<svg version="1.0" xmlns="http://www.w3.org/2000/svg"
 width="270.000000pt" height="270.000000pt" viewBox="0 0 270.000000 270.000000"
 preserveAspectRatio="xMidYMid meet">
<metadata>
Created by potrace 1.14, written by Peter Selinger 2001-2017
</metadata>
<g transform="translate(0.000000,270.000000) scale(0.100000,-0.100000)"
fill="#000000" stroke="none">
<path d="M890 2693 c-8 -3 -40 -23 -72 -44 -197 -134 -388 -375 -388 -493 0
-54 28 -133 70 -200 17 -27 28 -51 25 -54 -3 -3 -39 29 -81 71 l-74 78 -12
-28 c-16 -40 -22 -181 -9 -231 13 -48 89 -135 176 -202 31 -24 53 -45 50 -48
-3 -3 -42 13 -87 36 -46 22 -85 38 -87 36 -10 -10 59 -133 118 -211 120 -159
206 -216 514 -337 92 -36 200 -82 240 -101 143 -68 339 -210 380 -275 18 -29
18 -30 -8 -77 -14 -26 -44 -68 -66 -93 l-40 -45 5 65 c3 36 7 101 8 145 l3 80
-72 48 c-40 27 -76 46 -81 43 -4 -2 5 -121 20 -263 31 -300 31 -293 18 -293
-5 0 -39 29 -75 64 -77 75 -84 105 -34 135 l31 19 -63 49 c-34 26 -130 101
-212 166 -81 64 -150 117 -153 117 -7 0 17 -35 165 -245 137 -193 326 -474
372 -554 l25 -43 17 104 c37 222 56 272 166 416 39 51 74 104 77 117 15 60
-79 169 -440 510 -224 212 -329 329 -424 473 -124 188 -172 331 -173 510 0
170 51 332 166 520 14 23 25 42 23 41 -2 0 -10 -3 -18 -6z"/>
<path d="M1032 2655 c-62 -29 -156 -115 -183 -167 -10 -20 -19 -53 -19 -73 0
-86 174 -198 340 -219 34 -5 40 -4 23 4 -39 16 -130 88 -152 119 -29 40 -27
75 5 100 39 31 84 27 144 -14 29 -19 55 -35 60 -35 4 0 23 26 43 59 20 32 43
64 52 71 26 22 17 38 -49 85 -124 88 -189 105 -264 70z"/>
<path d="M1771 2664 c-52 -18 -109 -52 -168 -101 l-43 -34 39 -52 c21 -29 46
-67 55 -85 l17 -33 32 24 c83 62 142 73 182 32 14 -13 25 -32 25 -41 0 -35
-44 -86 -118 -134 l-76 -50 46 5 c64 6 193 58 251 100 53 40 87 88 87 124 0
43 -40 109 -97 161 -94 86 -159 109 -232 84z"/>
<path d="M1440 2519 c-8 -17 -38 -70 -67 -117 -54 -86 -60 -112 -24 -112 11 0
27 -8 37 -17 14 -15 16 -30 10 -107 -10 -139 -9 -139 -331 -162 -121 -8 -227
-19 -235 -23 -8 -4 -23 -7 -34 -5 -12 2 -15 -1 -9 -7 5 -5 102 -16 214 -24
213 -14 280 -29 299 -65 11 -21 43 -327 60 -575 7 -93 15 -173 19 -176 66 -63
176 -159 181 -159 4 0 11 55 15 123 28 526 50 765 70 786 9 10 42 14 117 14
173 0 259 -29 302 -102 44 -76 57 -215 32 -344 -7 -37 -9 -70 -4 -73 14 -9 74
34 116 82 51 57 106 162 128 244 27 99 23 254 -8 351 -24 74 -78 168 -117 203
-18 16 -19 14 -45 -38 -32 -65 -88 -125 -140 -150 -57 -27 -177 -45 -298 -46
-174 0 -198 21 -198 178 l0 73 38 16 c20 8 39 17 41 19 2 2 -12 27 -31 56 -19
29 -51 83 -72 121 -21 37 -41 67 -46 67 -4 0 -13 -14 -20 -31z"/>
</g>
</svg>
